@startuml
interface Command {
    execute()
    undo()
}
class ConcreteCommand{
    execute()
    undo()
}
class Receiver{
    action()
}
Invoker o-right- Command
Command <.. ConcreteCommand
ConcreteCommand o-left- Receiver
Client .right.> Invoker
Client ..> ConcreteCommand
Client ..> Receiver
@enduml